<svg width="270" height="61" viewBox="0 0 270 61" fill="none" xmlns="http://www.w3.org/2000/svg">
<path d="M18.2227 36.7251L18.1582 34.0052L15.2454 35.0005L3.85473 36.7917C1.71895 37.1235 0.294988 39.1798 0.618706 41.3022C0.9424 43.2257 2.56043 44.619 4.43709 44.619C4.63122 44.619 4.82535 44.619 5.08448 44.5528L6.83205 44.2877C7.28531 43.7569 7.80267 43.2928 8.38545 42.8944L18.2227 36.7251Z" fill="white"/>
<path d="M58.9965 27.7035L52.7186 26.1779C51.9421 25.979 51.2302 25.6472 50.5828 25.1831C47.2173 22.7288 45.0169 21.1367 43.5284 20.0752C40.5511 17.8199 38.804 14.7022 32.9789 14.3704C27.6716 14.0386 9.74427 18.0189 2.94863 17.1565C1.913 17.0237 1.0069 17.82 0.942413 18.8811C0.618718 22.9937 0.55416 26.8411 0.0363507 29.4282C-0.222334 30.6887 0.942413 31.8824 2.17212 31.5511C8.96788 29.8265 21.1352 22.7286 30.7138 21.3358C26.96 24.0556 22.8824 27.1068 22.8824 27.1068C21.394 28.1683 20.5525 29.8929 20.617 31.7501L20.8111 38.1185L13.6271 42.6957L12.4624 43.4254L9.67966 45.2166C7.86748 46.3442 7.28512 48.7984 8.44985 50.6563C9.1618 51.8501 10.4561 52.5137 11.7505 52.5137C12.4624 52.5137 13.1743 52.3147 13.7567 51.9168L25.9888 44.1556C27.6069 43.0941 28.5774 41.2367 28.5129 39.3133V38.5836C28.7071 38.4508 28.9012 38.3184 29.0953 38.2518L30.972 36.9913L43.7219 28.3672C44.628 29.0307 45.6636 29.7605 46.7638 30.5562C48.1231 31.5511 49.6116 32.2146 51.1645 32.6125L57.4424 34.1381C57.7011 34.2042 57.9602 34.2042 58.1543 34.2042C59.6428 34.2042 60.9371 33.2094 61.2608 31.6834C61.7791 29.8927 60.6789 28.1016 58.9958 27.7036L58.9965 27.7035Z" fill="white"/>
<path d="M56.5845 1.36088C61.3248 4.16546 62.9531 10.3831 60.2204 15.2488C57.4877 20.1146 51.4287 21.7857 46.6877 18.9811C41.9466 16.1765 40.3191 9.95815 43.0518 5.09242C45.7845 0.226693 51.8435 -1.44441 56.5845 1.36088" fill="white"/>
<path d="M58.3152 45.1757V42.5407H67.7082C68.4315 42.5407 69.0515 42.3753 69.5682 42.0447C70.0849 41.6933 70.4879 41.249 70.7772 40.7117C71.0665 40.1743 71.2112 39.606 71.2112 39.0067C71.2112 38.3867 71.0665 37.8183 70.7772 37.3017C70.5085 36.7643 70.1159 36.3407 69.5992 36.0307C69.1032 35.7 68.4935 35.5347 67.7702 35.5347H63.6782C62.4589 35.5347 61.3842 35.2867 60.4542 34.7907C59.5242 34.274 58.7905 33.5713 58.2532 32.6827C57.7365 31.7733 57.4782 30.7503 57.4782 29.6137C57.4782 28.4563 57.7262 27.4127 58.2222 26.4827C58.7389 25.5527 59.4519 24.819 60.3612 24.2817C61.2912 23.7443 62.3555 23.4757 63.5542 23.4757H72.7612V26.1107H63.8332C63.1512 26.1107 62.5519 26.276 62.0352 26.6067C61.5185 26.9167 61.1259 27.33 60.8572 27.8467C60.5885 28.3427 60.4542 28.88 60.4542 29.4587C60.4542 30.0167 60.5782 30.554 60.8262 31.0707C61.0949 31.5667 61.4772 31.9697 61.9732 32.2797C62.4899 32.5897 63.0789 32.7447 63.7402 32.7447H67.9252C69.2272 32.7447 70.3432 33.003 71.2732 33.5197C72.2032 34.0363 72.9162 34.739 73.4122 35.6277C73.9082 36.5163 74.1562 37.529 74.1562 38.6657C74.1562 39.9263 73.8979 41.0527 73.3812 42.0447C72.8852 43.016 72.1722 43.7807 71.2422 44.3387C70.3122 44.8967 69.2479 45.1757 68.0492 45.1757H58.3152ZM101.249 45.5477C99.5748 45.5477 98.0868 45.1963 96.7848 44.4937C95.4828 43.791 94.4598 42.7783 93.7158 41.4557C92.9924 40.133 92.6308 38.5727 92.6308 36.7747V23.4757H95.6068V37.0847C95.6068 38.1387 95.8341 39.11 96.2888 39.9987C96.7434 40.8873 97.3944 41.6003 98.2418 42.1377C99.0891 42.6543 100.091 42.9127 101.249 42.9127C102.406 42.9127 103.408 42.6543 104.256 42.1377C105.103 41.6003 105.744 40.8873 106.178 39.9987C106.632 39.11 106.86 38.1387 106.86 37.0847V23.4757H109.836V36.7747C109.836 38.5727 109.464 40.133 108.72 41.4557C107.996 42.7783 106.984 43.791 105.682 44.4937C104.4 45.1963 102.923 45.5477 101.249 45.5477ZM143.879 45.5477C142.763 45.5477 141.761 45.2893 140.872 44.7727C139.983 44.256 139.281 43.5533 138.764 42.6647C138.268 41.7553 138.02 40.7013 138.02 39.5027V28.7147C138.02 28.1567 137.886 27.6503 137.617 27.1957C137.348 26.741 136.987 26.3793 136.532 26.1107C136.077 25.842 135.581 25.7077 135.044 25.7077C134.507 25.7077 134.011 25.842 133.556 26.1107C133.122 26.3793 132.771 26.741 132.502 27.1957C132.254 27.6503 132.13 28.1567 132.13 28.7147V45.1757H129.154V29.1177C129.154 27.981 129.402 26.958 129.898 26.0487C130.394 25.1393 131.086 24.4263 131.975 23.9097C132.864 23.3723 133.887 23.1037 135.044 23.1037C136.222 23.1037 137.255 23.3723 138.144 23.9097C139.033 24.4263 139.725 25.1393 140.221 26.0487C140.717 26.958 140.965 27.981 140.965 29.1177V39.9057C140.965 40.4843 141.099 41.001 141.368 41.4557C141.637 41.8897 141.988 42.241 142.422 42.5097C142.877 42.7783 143.362 42.9127 143.879 42.9127C144.396 42.9127 144.871 42.7783 145.305 42.5097C145.739 42.241 146.08 41.8897 146.328 41.4557C146.597 41.001 146.731 40.4843 146.731 39.9057V29.1177C146.731 27.981 146.979 26.958 147.475 26.0487C147.992 25.1393 148.694 24.4263 149.583 23.9097C150.472 23.3723 151.505 23.1037 152.683 23.1037C153.84 23.1037 154.863 23.3723 155.752 23.9097C156.641 24.4263 157.333 25.1393 157.829 26.0487C158.325 26.958 158.573 27.981 158.573 29.1177V45.1757H155.597V28.7147C155.597 28.1567 155.463 27.6503 155.194 27.1957C154.946 26.741 154.595 26.3793 154.14 26.1107C153.706 25.842 153.22 25.7077 152.683 25.7077C152.125 25.7077 151.619 25.842 151.164 26.1107C150.73 26.3793 150.379 26.741 150.11 27.1957C149.841 27.6503 149.707 28.1567 149.707 28.7147V39.5027C149.707 40.7013 149.449 41.7553 148.932 42.6647C148.436 43.5533 147.744 44.256 146.855 44.7727C145.987 45.2893 144.995 45.5477 143.879 45.5477ZM183.214 45.1757C182.015 45.1757 180.951 44.8967 180.021 44.3387C179.112 43.76 178.399 43.0057 177.882 42.0757C177.365 41.1457 177.107 40.133 177.107 39.0377C177.107 38.0457 177.334 37.1157 177.789 36.2477C178.264 35.3797 178.946 34.6977 179.835 34.2017C178.967 33.6437 178.306 32.9513 177.851 32.1247C177.396 31.298 177.169 30.43 177.169 29.5207C177.169 28.4047 177.427 27.392 177.944 26.4827C178.481 25.5733 179.205 24.85 180.114 24.3127C181.023 23.7547 182.026 23.4757 183.121 23.4757H191.708V26.1107H183.462C182.821 26.1107 182.253 26.2657 181.757 26.5757C181.261 26.8857 180.868 27.299 180.579 27.8157C180.29 28.3117 180.145 28.88 180.145 29.5207C180.145 30.12 180.29 30.6677 180.579 31.1637C180.889 31.6597 181.302 32.0627 181.819 32.3727C182.336 32.662 182.904 32.8067 183.524 32.8067H190.561V35.4417H183.741C182.976 35.4417 182.315 35.6173 181.757 35.9687C181.22 36.2993 180.796 36.7437 180.486 37.3017C180.197 37.839 180.052 38.4177 180.052 39.0377C180.052 39.6577 180.197 40.2363 180.486 40.7737C180.775 41.311 181.189 41.745 181.726 42.0757C182.263 42.3857 182.894 42.5407 183.617 42.5407H191.708V45.1757H183.214ZM224.862 45.5477C223.704 45.5477 222.681 45.2893 221.793 44.7727C220.925 44.2353 220.243 43.512 219.747 42.6027C219.251 41.6933 219.003 40.6703 219.003 39.5337V28.7147C219.003 28.1567 218.868 27.6503 218.6 27.1957C218.331 26.741 217.969 26.3793 217.515 26.1107C217.06 25.842 216.564 25.7077 216.027 25.7077C215.489 25.7077 214.993 25.842 214.539 26.1107C214.105 26.3793 213.753 26.741 213.485 27.1957C213.237 27.6503 213.113 28.1567 213.113 28.7147V45.1757H210.137V29.1177C210.137 27.981 210.385 26.958 210.881 26.0487C211.377 25.1393 212.069 24.4263 212.958 23.9097C213.846 23.3723 214.869 23.1037 216.027 23.1037C217.205 23.1037 218.238 23.3723 219.127 23.9097C220.015 24.4263 220.708 25.1393 221.204 26.0487C221.7 26.958 221.948 27.981 221.948 29.1177V39.9367C221.948 40.4947 222.082 41.001 222.351 41.4557C222.619 41.9103 222.971 42.272 223.405 42.5407C223.859 42.8093 224.345 42.9437 224.862 42.9437C225.378 42.9437 225.854 42.8093 226.288 42.5407C226.722 42.272 227.063 41.9103 227.311 41.4557C227.579 41.001 227.714 40.4947 227.714 39.9367V23.4757H230.69V39.5337C230.69 40.6703 230.442 41.6933 229.946 42.6027C229.45 43.512 228.768 44.2353 227.9 44.7727C227.032 45.2893 226.019 45.5477 224.862 45.5477ZM247.794 45.1757L255.172 25.5527C255.502 24.7053 255.957 24.0853 256.536 23.6927C257.114 23.3 257.786 23.1037 258.551 23.1037C259.315 23.1037 259.987 23.3 260.566 23.6927C261.165 24.0647 261.62 24.6743 261.93 25.5217L269.339 45.1757H266.084L264.193 39.9367H252.847L250.925 45.1757H247.794ZM253.777 37.3017H263.294L259.419 26.5447C259.315 26.276 259.202 26.0693 259.078 25.9247C258.954 25.78 258.778 25.7077 258.551 25.7077C258.344 25.7077 258.179 25.78 258.055 25.9247C257.931 26.0693 257.827 26.276 257.745 26.5447L253.777 37.3017Z" fill="white"/>
</svg>
