<svg width="334" height="284" viewBox="0 0 334 284" fill="none" xmlns="http://www.w3.org/2000/svg">
<path d="M121.639 189.608L117.581 178.018L106.14 186.435L58.4853 210.328C49.5442 214.791 46.1293 225.647 50.4995 234.302C54.5934 242.103 63.6491 245.785 71.91 243.116C72.7645 242.84 73.619 242.564 74.6679 241.911L81.9926 238.287C83.2514 235.363 84.8847 232.634 86.8972 230.094L121.639 189.608Z" fill="#7B52AE"/>
<path d="M288.603 92.8727L258.852 95.2491C255.158 95.499 251.563 95.0867 248.07 94.0141C229.85 88.2602 217.954 84.5516 209.929 82.1098C193.694 76.6584 181.677 65.7532 155.575 72.6127C131.753 78.736 58.3616 121.327 27.2511 127.288C22.508 128.19 19.6245 132.899 20.8129 137.548C25.0948 155.671 30.1493 172.287 31.4598 184.134C32.0701 189.915 38.8538 193.386 43.8071 190.214C71.3283 173.142 115.039 125.354 155.27 105.749C142.52 122.769 128.805 141.672 128.805 141.672C123.726 148.348 122.415 156.951 125.276 164.836L134.967 191.911L109.695 221.786L105.581 226.576L95.8168 238.227C89.4045 245.647 90.2465 257.016 97.9515 263.338C102.742 267.453 109.36 268.462 115.058 266.621C118.192 265.608 121.049 263.741 123.061 261.204L166.136 210.475C171.785 203.615 173.481 194.257 170.528 186.088L169.515 182.954C170.185 182.108 170.856 181.263 171.618 180.701L178.13 172.619L222.287 117.447C227.196 119.008 232.768 120.669 238.715 122.522C246.079 124.861 253.552 125.594 260.94 125.094L290.691 122.718C291.922 122.634 293.062 122.266 293.917 121.99C300.469 119.873 304.786 113.759 304.093 106.745C303.89 98.3173 296.562 92.1894 288.601 92.8737L288.603 92.8727Z" fill="#7B52AE"/>
<path d="M228.552 17.7616C245.044 21.2843 255.56 37.5096 252.038 54.0039C248.516 70.4981 232.289 81.0151 215.795 77.4929C199.3 73.9708 188.785 57.7429 192.308 41.2486C195.83 24.7544 212.057 14.2374 228.552 17.7616" fill="#7B52AE"/>
<path d="M142.792 169.824C133.552 161.258 126.002 151.531 120.141 140.643L135.234 124.363L153.054 140.883L152.035 141.983C148.771 145.503 149.376 149.337 153.85 153.484C157.81 157.156 161.047 157.635 163.563 154.921C164.923 153.454 165.356 151.811 164.862 149.989C164.442 148.236 163.04 145.777 160.656 142.613L156.074 136.524C146.464 123.796 146.758 111.933 156.956 100.933C162.871 94.5526 169.88 91.8461 177.983 92.8132C186.087 93.7803 194.245 98.0711 202.458 105.686C211.625 114.184 217.934 122.897 221.385 131.823L207.21 147.113L190.49 131.613L191.51 130.513C192.87 129.046 193.376 127.47 193.029 125.785C192.824 124.094 191.768 122.365 189.861 120.598C186.194 117.198 183.273 116.672 181.098 119.019C179.942 120.265 179.571 121.694 179.986 123.306C180.401 124.918 181.693 127.275 183.863 130.377L189.011 137.4C194.382 144.698 196.897 151.325 196.556 157.282C196.215 163.238 193.598 168.857 188.703 174.137C182.516 180.81 175.444 183.731 167.487 182.9C159.604 182.137 151.372 177.778 142.792 169.824Z" fill="white"/>
</svg>
